<svg xmlns="http://www.w3.org/2000/svg" aria-hidden="true" style="position:absolute;width:0;height:0;overflow:hidden"><defs><symbol id="icon-facebook" viewBox="0 0 34 32"><path fill="#274c5b" d="M32.476 15.637C32.476 7.002 25.205 0 16.238 0S0 7.002 0 15.637c0 7.804 5.937 14.273 13.701 15.448V20.159H9.577v-4.521h4.124v-3.445c0-3.918 2.425-6.084 6.133-6.084 1.777 0 3.636.306 3.636.306v3.848h-2.049c-2.016 0-2.647 1.205-2.647 2.443v2.932h4.503l-.719 4.521h-3.783v10.928c7.764-1.174 13.701-7.643 13.701-15.449z" style="fill:var(--color1, #274c5b)"/></symbol><symbol id="icon-twitter" viewBox="0 0 40 32"><path fill="#274c5b" d="M38.89 3.686a16.373 16.373 0 0 1-4.582 1.24A7.902 7.902 0 0 0 37.819.583a15.994 15.994 0 0 1-5.069 1.904A8.027 8.027 0 0 0 26.924 0c-4.409 0-7.977 3.516-7.977 7.851a7.556 7.556 0 0 0 .206 1.791A22.743 22.743 0 0 1 2.706 1.435a7.76 7.76 0 0 0-1.085 3.946c0 2.722 1.42 5.129 3.565 6.538a7.895 7.895 0 0 1-3.628-.98v.097c0 3.808 2.755 6.976 6.401 7.697a8.196 8.196 0 0 1-2.102.276 7.635 7.635 0 0 1-1.5-.146c1.014 3.119 3.964 5.388 7.458 5.453a16.17 16.17 0 0 1-9.91 3.362 16.6 16.6 0 0 1-1.904-.113 22.583 22.583 0 0 0 12.213 3.549c14.694 0 22.721-11.967 22.721-22.345 0-.34-.009-.681-.025-1.013a16.097 16.097 0 0 0 3.981-4.067z" style="fill:var(--color1, #274c5b)"/></symbol><symbol id="icon-instagram" viewBox="0 0 34 32"><path fill="#274c5b" d="M23.004 2.606c1.793.005 3.511.693 4.779 1.914s1.982 2.875 1.988 4.602v13.03c-.005 1.726-.72 3.381-1.988 4.602s-2.986 1.909-4.779 1.914H9.473c-1.793-.005-3.511-.693-4.779-1.914s-1.982-2.875-1.988-4.602V9.122c.005-1.726.72-3.381 1.988-4.602S7.68 2.611 9.473 2.606h13.531zm0-2.606H9.473C4.263 0 0 4.105 0 9.122v13.03c0 5.017 4.263 9.122 9.473 9.122h13.531c5.21 0 9.473-4.105 9.473-9.122V9.122C32.477 4.105 28.215 0 23.004 0z" style="fill:var(--color1, #274c5b)"/><path fill="#274c5b" d="M25.033 9.123c-.402 0-.794-.115-1.128-.329s-.594-.52-.747-.877-.194-.75-.116-1.129.272-.727.555-1.001.646-.46 1.039-.535.802-.037 1.173.111.688.398.911.72a1.904 1.904 0 0 1-.251 2.47c-.189.182-.413.326-.659.424s-.511.148-.777.148zm-8.795 1.303c1.071 0 2.117.306 3.007.878s1.584 1.387 1.994 2.339c.41.952.517 2.001.308 3.012s-.724 1.94-1.481 2.669c-.757.729-1.721 1.225-2.772 1.427s-2.138.098-3.127-.297c-.989-.395-1.835-1.063-2.429-1.92s-.912-1.865-.912-2.896c.002-1.382.572-2.707 1.587-3.684s2.391-1.527 3.826-1.528zm0-2.606c-1.606 0-3.176.459-4.511 1.318s-2.376 2.08-2.99 3.509c-.615 1.429-.775 3.001-.462 4.517s1.087 2.91 2.222 4.003 2.582 1.838 4.157 2.14c1.575.302 3.207.147 4.691-.445s2.752-1.594 3.644-2.88 1.368-2.797 1.368-4.344c0-2.074-.855-4.062-2.378-5.528s-3.588-2.29-5.741-2.29z" style="fill:var(--color1, #274c5b)"/></symbol><symbol id="icon-pinterest" viewBox="0 0 32 32"><path fill="#274c5b" d="M15.675 0C7.019 0 0 7.015 0 15.668c0 6.414 3.863 11.926 9.384 14.353-.042-1.091-.007-2.406.273-3.595l2.015-8.54s-.504-1-.504-2.476c0-2.322 1.344-4.057 3.023-4.057 1.428 0 2.113 1.07 2.113 2.35 0 1.434-.917 3.574-1.386 5.561-.392 1.665.833 3.015 2.477 3.015 2.967 0 4.968-3.812 4.968-8.33 0-3.434-2.316-6.001-6.522-6.001-4.751 0-7.718 3.546-7.718 7.505 0 1.364.406 2.329 1.036 3.071.287.343.329.483.224.874-.077.287-.245.979-.322 1.259-.105.399-.427.539-.784.392-2.19-.895-3.212-3.287-3.212-5.987 0-4.448 3.758-9.785 11.203-9.785 5.983 0 9.923 4.33 9.923 8.974 0 6.148-3.422 10.737-8.46 10.737-1.693 0-3.282-.916-3.828-1.952 0 0-.91 3.609-1.106 4.309-.329 1.21-.98 2.413-1.574 3.357a15.8 15.8 0 0 0 4.443.644c8.656 0 15.675-7.016 15.675-15.668S24.329.003 15.673.003z" style="fill:var(--color1, #274c5b)"/></symbol><symbol id="icon-shop" viewBox="0 0 35 32"><path fill="#fff" stroke="#fff" stroke-linecap="round" stroke-linejoin="round" stroke-width="2" d="M14.371 30.667a1.63 1.63 0 1 0 0-3.26 1.63 1.63 0 0 0 0 3.26zM25.778 30.667a1.63 1.63 0 1 0 0-3.26 1.63 1.63 0 0 0 0 3.26z" style="fill:var(--color2, #fff);stroke:var(--color2, #fff)"/><path fill="none" stroke="#fff" stroke-linecap="round" stroke-linejoin="round" stroke-width="2.667" d="M1.333 1.333h5.043l3.782 21.431h20.17" style="stroke:var(--color2, #fff)"/><path fill="none" stroke="#fff" stroke-linecap="round" stroke-linejoin="round" stroke-width="2.667" d="m9.482 17.578 20.33.143a.628.628 0 0 0 .619-.507L32.7 5.868a.627.627 0 0 0-.349-.693.615.615 0 0 0-.27-.06H7.424" style="stroke:var(--color2, #fff)"/></symbol><symbol id="icon-star" viewBox="0 0 34 32"><path fill="#ffa858" d="M15.034 1.786c.703-2.066 3.624-2.066 4.328 0L21.61 8.39a2.285 2.285 0 0 0 2.164 1.549h7.04c2.24 0 3.143 2.887 1.303 4.164l-5.51 3.822a2.287 2.287 0 0 0-.861 2.615l2.147 6.309c.71 2.087-1.655 3.871-3.466 2.615l-5.926-4.11a2.283 2.283 0 0 0-2.605 0l-5.926 4.11c-1.812 1.257-4.177-.527-3.466-2.615l2.147-6.309a2.287 2.287 0 0 0-.861-2.615l-5.51-3.822c-1.841-1.277-.937-4.164 1.303-4.164h7.04c.979 0 1.848-.623 2.164-1.549l2.248-6.604z" style="fill:var(--color3, #ffa858)"/></symbol><symbol id="icon-arrow" viewBox="0 0 42 32"><path fill="none" stroke="#fff" stroke-linecap="round" stroke-linejoin="round" stroke-width="2.462" d="M37.018 16H2.462M22.343 2.462l17.042 13.539-17.042 13.538V2.462z" style="stroke:var(--color2, #fff)"/></symbol></defs></svg>